<?xml version="1.0" encoding="UTF-8"?>
<svg width="24" height="24" viewBox="0 0 24 24" fill="none" xmlns="http://www.w3.org/2000/svg">
  <path d="M12 19l7-7 3 3-7 7-3-3z" stroke="currentColor" stroke-width="2" stroke-linecap="round" stroke-linejoin="round"/>
  <path d="M18 13l-1.5-7.5L2 2l3.5 14.5L13 18l5-5z" stroke="currentColor" stroke-width="2" stroke-linecap="round" stroke-linejoin="round"/>
  <path d="M2 2l7.586 7.586" stroke="currentColor" stroke-width="2" stroke-linecap="round" stroke-linejoin="round"/>
  <path d="M11 11c-.79-.79-2.79-2.79-3.5-3.5s-1.21-.71-2-.71c-1.1 0-2 .9-2 2 0 .79.21 1.29.71 2 .5.71 2.71 2.71 3.5 3.5.78.78 2 .78 2.78 0 .78-.79.78-2 0-2.79z" stroke="currentColor" stroke-width="2" stroke-linecap="round" stroke-linejoin="round"/>
</svg> 